<?xml version="1.0" standalone="no"?>
<!DOCTYPE svg PUBLIC "-//W3C//DTD SVG 20010904//EN"
 "http://www.w3.org/TR/2001/REC-SVG-20010904/DTD/svg10.dtd">
<svg version="1.0" xmlns="http://www.w3.org/2000/svg"
 width="538.000000pt" height="538.000000pt" viewBox="0 0 538.000000 538.000000"
 preserveAspectRatio="xMidYMid meet">
<metadata>
Created by potrace 1.14, written by Peter Selinger 2001-2017
</metadata>
<g transform="translate(0.000000,538.000000) scale(0.100000,-0.100000)"
fill="#000000" stroke="none">
<path d="M2596 5303 c-1 -1 -67 -4 -146 -7 -80 -4 -154 -8 -165 -10 -11 -2
-54 -9 -95 -16 -103 -17 -243 -53 -364 -95 -56 -19 -105 -36 -111 -38 -5 -1
-16 -6 -22 -10 -7 -5 -13 -5 -13 -1 0 4 -8 0 -18 -9 -10 -9 -27 -18 -38 -21
-42 -9 -64 -19 -64 -29 0 -6 -3 -8 -6 -5 -8 9 -149 -66 -329 -175 -11 -7 -22
-14 -25 -17 -3 -3 -32 -23 -64 -45 -33 -22 -64 -44 -70 -50 -6 -6 -24 -21 -41
-33 -92 -70 -285 -254 -376 -359 -60 -69 -171 -222 -233 -320 -62 -100 -196
-362 -196 -385 0 -8 -4 -18 -9 -23 -4 -6 -25 -57 -44 -115 -58 -170 -90 -301
-102 -425 -4 -33 -8 -67 -11 -75 -5 -18 -16 -290 -15 -375 2 -173 20 -362 48
-495 8 -41 17 -85 19 -97 6 -33 83 -261 111 -328 24 -59 85 -183 136 -277 59
-111 168 -267 285 -408 109 -132 320 -325 479 -438 151 -108 483 -292 525
-292 8 0 18 -4 24 -8 20 -18 298 -112 332 -112 10 0 23 -5 30 -12 7 -7 12 -9
12 -6 0 3 17 2 38 -3 36 -9 106 -24 167 -35 17 -3 44 -7 60 -9 17 -2 50 -6 75
-9 68 -9 184 -16 290 -16 119 -1 325 12 325 20 0 1 16 3 35 4 49 4 134 17 141
22 4 2 24 6 45 9 22 4 82 18 134 31 52 14 100 27 107 28 7 1 16 5 19 9 4 4 14
7 21 7 31 0 285 103 393 159 219 114 433 262 589 406 38 35 158 157 201 204
162 179 333 446 429 671 18 41 39 89 47 107 8 17 14 36 14 42 0 6 4 19 10 29
9 15 45 137 41 137 -1 0 7 26 18 58 11 31 18 57 16 57 -2 0 1 15 6 33 6 17 12
43 14 57 1 14 7 52 13 85 41 230 45 489 11 740 -7 56 -27 163 -53 290 -18 86
-118 379 -138 402 -6 7 -8 13 -4 13 3 0 -27 62 -66 138 -39 75 -76 147 -82
159 -6 13 -14 23 -18 23 -5 0 -8 7 -8 15 0 8 -3 15 -7 15 -5 0 -17 18 -27 40
-11 22 -22 40 -25 40 -3 0 -24 27 -46 60 -22 33 -43 60 -47 60 -5 0 -8 5 -8
10 0 6 -8 18 -17 28 -10 10 -40 45 -68 77 -122 143 -317 318 -475 426 -36 24
-66 47 -68 52 -2 4 -8 7 -12 7 -7 0 -54 27 -160 91 -54 33 -310 150 -310 142
0 -3 -6 -1 -13 5 -20 17 -285 101 -367 117 -8 1 -35 6 -60 11 -25 4 -47 8 -50
9 -45 10 -171 21 -350 29 -212 11 -222 11 -224 9z m-342 -1506 c16 -40 34 -85
42 -102 7 -16 24 -57 37 -90 13 -33 28 -69 32 -80 5 -11 9 -22 10 -25 1 -3 9
-23 19 -45 10 -22 22 -51 26 -65 4 -14 47 -118 94 -232 47 -114 86 -209 86
-212 0 -2 14 -34 30 -69 17 -36 30 -68 30 -70 0 -3 16 -40 35 -81 19 -42 35
-78 35 -81 0 -18 94 -195 100 -188 7 7 102 299 181 553 16 52 35 113 42 135 6
22 12 42 13 45 0 3 3 12 6 20 11 28 89 280 93 298 2 9 19 67 38 127 49 154 51
159 53 168 1 4 2 9 3 12 0 3 0 6 -1 8 -2 1 5 12 13 25 18 25 -20 23 457 22
l108 0 -3 -472 c-7 -1408 -11 -1819 -17 -1826 -4 -4 -26 -7 -49 -8 -23 0 -137
-4 -253 -8 l-211 -7 -2 358 c-7 1330 -12 1837 -16 1841 -2 3 -6 -1 -9 -9 -63
-201 -78 -252 -80 -262 -3 -18 -46 -155 -66 -212 -10 -27 -24 -72 -31 -100 -6
-27 -15 -54 -18 -60 -3 -5 -6 -13 -7 -17 -1 -5 -2 -9 -4 -10 -1 -2 -3 -10 -5
-18 -6 -27 -53 -174 -65 -205 -6 -16 -11 -32 -11 -35 1 -5 -55 -193 -66 -220
-3 -8 -7 -19 -9 -25 -1 -5 -25 -84 -54 -175 -29 -91 -56 -178 -60 -195 -8 -30
-84 -264 -156 -480 -21 -60 -43 -118 -50 -129 -12 -17 -14 -16 -27 15 -8 19
-24 57 -37 84 -12 28 -28 64 -35 80 -45 105 -57 132 -65 147 -6 10 -10 22 -10
27 0 4 -10 30 -22 57 -12 27 -23 51 -23 54 -1 3 -9 23 -19 45 -9 22 -40 96
-68 165 -45 113 -62 152 -89 215 -4 11 -31 76 -59 145 -28 69 -59 145 -70 170
-10 25 -34 83 -53 130 -201 491 -329 800 -384 927 -6 15 126 20 407 15 l185
-3 29 -72z m-475 -2103 c21 -22 74 -57 119 -79 80 -39 88 -46 54 -52 -35 -7
-591 -5 -622 2 l-32 7 70 34 c112 54 229 186 246 277 13 74 16 72 72 -41 30
-60 72 -127 93 -148z"/>
</g>
</svg>
