<?xml version="1.0" standalone="no"?>
<!DOCTYPE svg PUBLIC "-//W3C//DTD SVG 20010904//EN"
 "http://www.w3.org/TR/2001/REC-SVG-20010904/DTD/svg10.dtd">
<svg version="1.0" xmlns="http://www.w3.org/2000/svg"
 width="202.000000pt" height="197.000000pt" viewBox="0 0 202.000000 197.000000"
 preserveAspectRatio="xMidYMid meet">

<g transform="translate(0.000000,197.000000) scale(0.100000,-0.100000)"
fill="#000000" stroke="none">
<path d="M819 1955 c-381 -72 -688 -359 -781 -731 -31 -126 -31 -332 0 -459
122 -490 619 -813 1127 -730 499 81 859 516 832 1005 -25 435 -317 789 -745
901 -103 27 -326 34 -433 14z m66 -647 c112 -279 173 -420 178 -412 2 5 23 69
46 142 23 72 59 191 81 262 l41 130 105 0 104 0 -2 -432 -3 -433 -97 -3 -98
-3 -2 418 -3 418 -73 -235 c-136 -438 -185 -590 -191 -590 -3 0 -46 98 -95
218 -126 307 -230 561 -249 605 l-16 37 112 0 112 0 50 -122z m-204 -708 c13
-8 38 -20 54 -27 25 -10 5 -11 -120 -11 -123 0 -144 2 -116 11 45 14 97 68
106 107 l7 32 23 -49 c12 -26 33 -55 46 -63z"/>
</g>
</svg>
